<?xml version="1.0"?>
<svg width="400" height="400.00001" xmlns="http://www.w3.org/2000/svg" xmlns:svg="http://www.w3.org/2000/svg" version="1.1">

 <metadata id="metadata7">image/svg+xml</metadata>
 <g class="layer">
  <title>Layer 1</title>
  <g id="layer1">
   <path d="m0,0l0,116l116,0l0,-116l-116,0zm141,0l0,116l116,0l0,-116l-116,0zm141,0l0,116l118,0l0,-116l-118,0zm-282,141l0,116l116,0l0,-116l-116,0zm141,0l0,116l116,0l0,-116l-116,0zm141,0l0,116l118,0l0,-116l-118,0zm-282,141l0,118l116,0l0,-118l-116,0zm141,0l0,118l116,0l0,-118l-116,0zm141,0l0,118l118,0l0,-118l-118,0z" fill="#ff0000" id="rect23362" stroke-dashoffset="0" stroke-miterlimit="4"/>
  </g>
 </g>
</svg>