<?xml version="1.0" encoding="UTF-8"?>
<svg xmlns="http://www.w3.org/2000/svg" xmlns:xlink="http://www.w3.org/1999/xlink" width="4480.38" height="4480.38" viewBox="0 0 4480.38 4480.38">
<path fill-rule="nonzero" fill="rgb(92.576599%, 92.576599%, 92.576599%)" fill-opacity="1" d="M 1871.058594 349.019531 L 1871.320312 348.949219 C 1885.050781 345.28125 1899.058594 353.359375 1902.738281 367.089844 L 2164.738281 1345 C 2168.421875 1358.730469 2160.328125 1372.738281 2146.609375 1376.410156 L 2146.339844 1376.488281 C 2132.621094 1380.160156 2118.609375 1372.078125 2114.929688 1358.351562 L 1852.921875 380.441406 C 1849.25 366.710938 1857.339844 352.699219 1871.058594 349.019531 "/>
<path fill-rule="nonzero" fill="rgb(0%, 0%, 0%)" fill-opacity="1" d="M 1875.671875 335.570312 C 1873.148438 335.710938 1870.601562 336.109375 1868.070312 336.789062 L 1867.800781 336.859375 C 1847.550781 342.289062 1835.339844 363.449219 1840.769531 383.699219 L 2102.78125 1361.609375 C 2108.199219 1381.859375 2129.351562 1394.070312 2149.601562 1388.640625 L 2149.871094 1388.570312 C 2170.121094 1383.148438 2182.328125 1362 2176.898438 1341.75 L 1914.890625 363.828125 C 1910.140625 346.109375 1893.359375 334.550781 1875.671875 335.570312 Z M 1879.851562 360.730469 C 1884.910156 361.371094 1889.128906 364.949219 1890.578125 370.351562 L 2152.589844 1348.261719 C 2154.519531 1355.460938 2150.550781 1362.328125 2143.351562 1364.261719 L 2143.078125 1364.328125 C 2135.890625 1366.25 2129.019531 1362.289062 2127.089844 1355.089844 L 1865.078125 377.179688 C 1863.148438 369.980469 1867.121094 363.109375 1874.320312 361.191406 L 1874.578125 361.109375 C 1876.378906 360.628906 1878.160156 360.519531 1879.851562 360.730469 "/>
<path fill-rule="nonzero" fill="rgb(92.576599%, 92.576599%, 92.576599%)" fill-opacity="1" d="M 2399.660156 740.929688 L 2399.921875 741 C 2413.648438 744.679688 2421.730469 758.691406 2418.058594 772.421875 L 2261 1358.609375 C 2257.320312 1372.339844 2243.308594 1380.421875 2229.589844 1376.75 L 2229.328125 1376.679688 C 2215.601562 1373 2207.511719 1358.988281 2211.191406 1345.261719 L 2368.25 759.070312 C 2371.921875 745.339844 2385.929688 737.261719 2399.660156 740.929688 "/>
<path fill-rule="nonzero" fill="rgb(0%, 0%, 0%)" fill-opacity="1" d="M 2395.308594 727.550781 C 2377.621094 726.53125 2360.839844 738.089844 2356.089844 755.808594 L 2199.03125 1342.011719 C 2193.609375 1362.261719 2205.820312 1383.410156 2226.070312 1388.828125 L 2226.328125 1388.898438 C 2246.578125 1394.328125 2267.730469 1382.121094 2273.160156 1361.871094 L 2430.21875 775.671875 C 2435.640625 755.421875 2423.429688 734.269531 2403.179688 728.851562 L 2402.921875 728.78125 C 2400.390625 728.101562 2397.839844 727.691406 2395.308594 727.550781 Z M 2391.140625 752.710938 C 2392.820312 752.5 2394.601562 752.609375 2396.390625 753.089844 L 2396.398438 753.089844 L 2396.660156 753.160156 C 2403.859375 755.089844 2407.820312 761.960938 2405.890625 769.160156 L 2248.839844 1355.351562 C 2246.910156 1362.550781 2240.050781 1366.519531 2232.851562 1364.589844 L 2232.589844 1364.519531 C 2232.589844 1364.519531 2232.589844 1364.519531 2232.578125 1364.519531 C 2225.378906 1362.589844 2221.421875 1355.71875 2223.351562 1348.519531 L 2380.410156 762.328125 C 2381.851562 756.929688 2386.078125 753.351562 2391.140625 752.710938 "/>
<path fill-rule="nonzero" fill="rgb(34.521484%, 34.521484%, 34.521484%)" fill-opacity="1" d="M 2386.941406 1356.558594 C 2386.941406 1394.410156 2313.78125 1425.089844 2223.53125 1425.089844 C 2180.191406 1425.089844 2138.621094 1417.871094 2107.96875 1405.019531 C 2077.328125 1392.160156 2060.109375 1374.730469 2060.109375 1356.558594 C 2060.109375 1338.378906 2077.328125 1320.949219 2107.96875 1308.101562 C 2138.621094 1295.25 2180.191406 1288.03125 2223.53125 1288.03125 C 2266.871094 1288.03125 2308.429688 1295.25 2339.078125 1308.101562 C 2369.730469 1320.949219 2386.941406 1338.378906 2386.941406 1356.558594 "/>
<path fill-rule="nonzero" fill="rgb(0%, 0%, 0%)" fill-opacity="1" d="M 2195.320312 1247.230469 C 2148.769531 1247.230469 2106.578125 1255 2074.898438 1268.28125 C 2059.058594 1274.921875 2045.78125 1282.921875 2035.890625 1292.738281 C 2025.988281 1302.550781 2019.320312 1314.839844 2019.320312 1328.351562 C 2019.320312 1341.871094 2025.988281 1354.148438 2035.890625 1363.960938 C 2045.78125 1373.78125 2059.058594 1381.78125 2074.898438 1388.421875 C 2106.578125 1401.699219 2148.769531 1409.46875 2195.320312 1409.46875 C 2241.878906 1409.46875 2284.070312 1401.699219 2315.75 1388.421875 C 2331.589844 1381.78125 2344.859375 1373.78125 2354.761719 1363.960938 C 2364.660156 1354.148438 2371.328125 1341.871094 2371.328125 1328.351562 C 2371.328125 1314.839844 2364.660156 1302.550781 2354.761719 1292.738281 C 2344.859375 1282.921875 2331.589844 1274.921875 2315.75 1268.28125 C 2284.070312 1255 2241.878906 1247.230469 2195.320312 1247.230469 Z M 2195.320312 1272.410156 C 2239.019531 1272.410156 2278.539062 1279.980469 2306.011719 1291.5 C 2319.738281 1297.261719 2330.398438 1304.03125 2337.039062 1310.609375 C 2343.679688 1317.199219 2346.148438 1322.949219 2346.148438 1328.351562 C 2346.148438 1333.761719 2343.679688 1339.5 2337.039062 1346.089844 C 2330.398438 1352.671875 2319.738281 1359.441406 2306.011719 1365.199219 C 2278.539062 1376.71875 2239.019531 1384.289062 2195.320312 1384.289062 C 2151.621094 1384.289062 2112.109375 1376.71875 2084.640625 1365.199219 C 2070.910156 1359.441406 2060.25 1352.671875 2053.609375 1346.089844 C 2046.96875 1339.5 2044.488281 1333.761719 2044.488281 1328.351562 C 2044.488281 1322.949219 2046.96875 1317.199219 2053.609375 1310.609375 C 2060.25 1304.03125 2070.910156 1297.261719 2084.640625 1291.5 C 2112.109375 1279.980469 2151.621094 1272.410156 2195.320312 1272.410156 "/>
<path fill-rule="nonzero" fill="rgb(34.521484%, 34.521484%, 34.521484%)" fill-opacity="1" d="M 2612.089844 1511.921875 C 2612.089844 1601.921875 2438.121094 1674.871094 2223.53125 1674.871094 C 2120.480469 1674.871094 2021.640625 1657.699219 1948.78125 1627.148438 C 1875.910156 1596.589844 1834.96875 1555.140625 1834.96875 1511.921875 C 1834.96875 1468.710938 1875.910156 1427.261719 1948.78125 1396.699219 C 2021.640625 1366.148438 2120.480469 1348.980469 2223.53125 1348.980469 C 2438.121094 1348.980469 2612.089844 1421.929688 2612.089844 1511.921875 "/>
<path fill-rule="nonzero" fill="rgb(0%, 0%, 0%)" fill-opacity="1" d="M 2195.320312 1305.039062 C 2086.238281 1305.039062 1987.441406 1323.398438 1914.488281 1353.988281 C 1878.011719 1369.289062 1847.921875 1387.609375 1826.230469 1409.121094 C 1804.53125 1430.640625 1791.039062 1456.148438 1791.039062 1483.71875 C 1791.039062 1511.289062 1804.53125 1536.808594 1826.230469 1558.320312 C 1847.921875 1579.828125 1878.011719 1598.148438 1914.488281 1613.449219 C 1987.441406 1644.039062 2086.238281 1662.398438 2195.320312 1662.398438 C 2304.398438 1662.398438 2403.210938 1644.039062 2476.160156 1613.449219 C 2512.628906 1598.148438 2542.730469 1579.828125 2564.429688 1558.320312 C 2586.121094 1536.808594 2599.609375 1511.289062 2599.609375 1483.71875 C 2599.609375 1456.148438 2586.121094 1430.640625 2564.429688 1409.121094 C 2542.730469 1387.609375 2512.628906 1369.289062 2476.160156 1353.988281 C 2403.210938 1323.398438 2304.398438 1305.039062 2195.320312 1305.039062 Z M 2195.320312 1336.5 C 2300.839844 1336.5 2396.308594 1354.621094 2463.988281 1383.011719 C 2497.839844 1397.199219 2524.648438 1413.988281 2542.269531 1431.460938 C 2559.898438 1448.941406 2568.148438 1466.289062 2568.148438 1483.71875 C 2568.148438 1501.148438 2559.898438 1518.5 2542.269531 1535.96875 C 2524.648438 1553.449219 2497.839844 1570.238281 2463.988281 1584.429688 C 2396.308594 1612.820312 2300.839844 1630.929688 2195.320312 1630.929688 C 2089.808594 1630.929688 1994.339844 1612.820312 1926.660156 1584.429688 C 1892.820312 1570.238281 1866.011719 1553.449219 1848.378906 1535.96875 C 1830.75 1518.5 1822.5 1501.148438 1822.5 1483.71875 C 1822.5 1466.289062 1830.75 1448.941406 1848.378906 1431.460938 C 1866.011719 1413.988281 1892.820312 1397.199219 1926.660156 1383.011719 C 1994.339844 1354.621094 2089.808594 1336.5 2195.320312 1336.5 "/>
<path fill-rule="nonzero" fill="rgb(78.90625%, 58.789062%, 0%)" fill-opacity="1" d="M 3152.558594 3410.960938 L 3094.171875 3426.601562 C 3059.378906 3435.929688 3033.761719 3465.25 3043.851562 3490.039062 L 3223.988281 3932.835938 C 3234.039062 3957.535156 3247.019531 3976.617188 3260.109375 3973.109375 L 3282.078125 3967.222656 C 3295.179688 3963.714844 3296.871094 3940.695312 3293.230469 3914.285156 L 3227.859375 3440.730469 C 3224.199219 3414.21875 3187.359375 3401.628906 3152.558594 3410.960938 "/>
<path fill-rule="nonzero" fill="rgb(78.90625%, 58.789062%, 0%)" fill-opacity="1" d="M 1369.699219 3410.960938 L 1428.089844 3426.601562 C 1462.890625 3435.929688 1488.5 3465.25 1478.421875 3490.039062 L 1298.269531 3932.835938 C 1288.21875 3957.535156 1275.238281 3976.617188 1262.148438 3973.109375 L 1240.179688 3967.222656 C 1227.089844 3963.714844 1225.390625 3940.695312 1229.039062 3914.285156 L 1294.410156 3440.730469 C 1298.070312 3414.21875 1334.910156 3401.628906 1369.699219 3410.960938 "/>
<path fill-rule="nonzero" fill="rgb(0%, 0%, 0%)" fill-opacity="1" d="M 3150.921875 3360.800781 C 3140.628906 3360.460938 3129.988281 3361.699219 3119.460938 3364.519531 L 3061.070312 3380.160156 C 3040.011719 3385.808594 3021.808594 3397.140625 3009.359375 3412.351562 C 2996.910156 3427.558594 2990.039062 3448.980469 2998.160156 3468.949219 L 3178.289062 3911.757812 C 3183.75 3925.160156 3189.910156 3937.414062 3198.160156 3947.390625 C 3202.289062 3952.382812 3207 3956.9375 3213.410156 3960.289062 C 3219.828125 3963.644531 3228.640625 3965.320312 3236.800781 3963.132812 L 3258.761719 3957.253906 C 3266.921875 3955.066406 3273.730469 3949.203125 3277.609375 3943.09375 C 3281.488281 3936.984375 3283.261719 3930.675781 3284.339844 3924.289062 C 3286.5 3911.523438 3285.710938 3897.84375 3283.730469 3883.507812 L 3271.050781 3791.636719 C 3270.371094 3786.671875 3267.738281 3782.179688 3263.738281 3779.15625 C 3259.75 3776.128906 3254.710938 3774.816406 3249.75 3775.507812 C 3244.789062 3776.195312 3240.308594 3778.828125 3237.289062 3782.824219 C 3234.269531 3786.816406 3232.960938 3791.847656 3233.648438 3796.808594 L 3246.328125 3888.65625 C 3247.988281 3900.734375 3248.160156 3911.757812 3247.101562 3917.976562 C 3246.71875 3920.25 3246.359375 3920.871094 3246.078125 3921.546875 L 3229.929688 3925.894531 C 3229.351562 3925.453125 3228.730469 3925.097656 3227.261719 3923.320312 C 3223.238281 3918.460938 3217.859375 3908.8125 3213.269531 3897.523438 L 3033.140625 3454.710938 C 3031.179688 3449.890625 3032.050781 3444.25 3038.578125 3436.28125 C 3045.109375 3428.300781 3057.121094 3420.328125 3070.859375 3416.648438 L 3129.25 3400.980469 C 3142.988281 3397.300781 3157.378906 3398.210938 3167.019531 3401.859375 C 3176.660156 3405.5 3180.25 3409.960938 3180.960938 3415.121094 L 3221.261719 3707.148438 C 3221.941406 3712.117188 3224.570312 3716.605469 3228.570312 3719.632812 C 3232.558594 3722.65625 3237.601562 3723.96875 3242.558594 3723.28125 C 3252.878906 3721.84375 3260.089844 3712.320312 3258.660156 3702 L 3218.371094 3409.949219 C 3215.421875 3388.589844 3198.75 3373.480469 3180.359375 3366.539062 C 3171.160156 3363.058594 3161.210938 3361.148438 3150.921875 3360.800781 "/>
<path fill-rule="nonzero" fill="rgb(0%, 0%, 0%)" fill-opacity="1" d="M 1314.941406 3360.800781 C 1304.648438 3361.148438 1294.699219 3363.058594 1285.5 3366.539062 C 1267.109375 3373.480469 1250.441406 3388.589844 1247.488281 3409.949219 L 1182.128906 3883.507812 C 1180.148438 3897.84375 1179.359375 3911.523438 1181.519531 3924.289062 C 1182.601562 3930.675781 1184.371094 3936.984375 1188.25 3943.09375 C 1192.121094 3949.203125 1198.941406 3955.066406 1207.089844 3957.253906 L 1229.050781 3963.132812 C 1237.210938 3965.320312 1246.03125 3963.644531 1252.441406 3960.289062 C 1258.851562 3956.9375 1263.570312 3952.382812 1267.699219 3947.390625 C 1275.949219 3937.414062 1282.109375 3925.160156 1287.570312 3911.757812 L 1329.460938 3808.714844 C 1333.390625 3799.054688 1328.75 3788.035156 1319.089844 3784.105469 C 1309.429688 3780.175781 1298.421875 3784.820312 1294.488281 3794.476562 L 1252.589844 3897.523438 C 1247.988281 3908.8125 1242.621094 3918.460938 1238.601562 3923.320312 C 1237.128906 3925.097656 1236.5 3925.453125 1235.929688 3925.894531 L 1219.769531 3921.546875 C 1219.488281 3920.871094 1219.140625 3920.25 1218.75 3917.976562 C 1217.699219 3911.757812 1217.859375 3900.734375 1219.53125 3888.65625 L 1284.921875 3415.121094 C 1285.628906 3409.960938 1289.191406 3405.5 1298.839844 3401.859375 C 1308.480469 3398.210938 1322.871094 3397.300781 1336.609375 3400.980469 L 1395 3416.648438 C 1408.738281 3420.328125 1420.75 3428.300781 1427.28125 3436.28125 C 1433.808594 3444.25 1434.679688 3449.890625 1432.71875 3454.710938 L 1341.371094 3679.265625 C 1337.441406 3688.921875 1342.078125 3699.941406 1351.738281 3703.871094 C 1361.398438 3707.800781 1372.410156 3703.15625 1376.339844 3693.5 L 1467.691406 3468.949219 C 1475.820312 3448.980469 1468.949219 3427.558594 1456.5 3412.351562 C 1444.039062 3397.140625 1425.839844 3385.808594 1404.789062 3380.160156 L 1346.390625 3364.519531 C 1335.859375 3361.699219 1325.230469 3360.460938 1314.941406 3360.800781 "/>
<path fill-rule="nonzero" fill="rgb(100%, 1.177979%, 1.177979%)" fill-opacity="1" d="M 1048.390625 1502.519531 L 3511.480469 1502.519531 C 3906.328125 1502.519531 3866.730469 2180.890625 3868.71875 2560.238281 C 3861.460938 2875.128906 3906.328125 3617.957031 3511.480469 3617.957031 L 1048.390625 3617.957031 C 653.542969 3617.957031 693.140625 2939.589844 691.148438 2560.238281 C 698.410156 2245.351562 653.542969 1502.519531 1048.390625 1502.519531 "/>
<path fill-rule="nonzero" fill="rgb(90.625%, 1.177979%, 1.177979%)" fill-opacity="1" d="M 3171.449219 1464.921875 C 3267.441406 1715.769531 3454.609375 2409.96875 3196.578125 3580.351562 L 3464.480469 3580.351562 C 3859.320312 3580.351562 3814.449219 2837.519531 3821.71875 2522.628906 C 3819.71875 2143.28125 3859.320312 1464.921875 3464.480469 1464.921875 L 3171.449219 1464.921875 "/>
<path fill-rule="nonzero" fill="rgb(0%, 0%, 0%)" fill-opacity="1" d="M 1001.378906 1433.449219 C 909.546875 1433.449219 835.335938 1471.789062 781.644531 1532.671875 C 727.953125 1593.550781 692.949219 1675.441406 668.746094 1766.859375 C 666.609375 1774.929688 667.765625 1783.511719 671.960938 1790.730469 C 676.152344 1797.949219 683.042969 1803.199219 691.113281 1805.339844 C 707.914062 1809.78125 725.136719 1799.769531 729.585938 1782.960938 C 752.28125 1697.230469 784.898438 1624.128906 828.847656 1574.300781 C 872.796875 1524.460938 926.238281 1496.378906 1001.378906 1496.378906 L 2766.660156 1496.378906 C 2784.039062 1496.378906 2798.128906 1482.289062 2798.128906 1464.910156 C 2798.128906 1447.53125 2784.039062 1433.449219 2766.660156 1433.449219 Z M 3135.601562 1433.449219 C 3118.21875 1433.449219 3104.128906 1447.53125 3104.128906 1464.910156 C 3104.128906 1482.289062 3118.21875 1496.378906 3135.601562 1496.378906 L 3464.480469 1496.378906 C 3554.179688 1496.378906 3614.148438 1532.339844 3661.359375 1595.648438 C 3708.570312 1658.96875 3740.089844 1751.328125 3759.460938 1857.179688 C 3798.160156 2068.710938 3789.261719 2331.5 3790.25 2522.328125 C 3789.628906 2549.261719 3789.390625 2578.988281 3789.21875 2611.011719 C 3789.179688 2619.351562 3792.449219 2627.378906 3798.328125 2633.308594 C 3804.199219 2639.238281 3812.191406 2642.601562 3820.53125 2642.640625 C 3837.910156 2642.730469 3852.070312 2628.710938 3852.160156 2611.328125 C 3852.328125 2579.28125 3852.570312 2549.679688 3853.179688 2523.359375 C 3853.191406 2523.058594 3853.191406 2522.761719 3853.191406 2522.460938 C 3852.199219 2333.980469 3862.050781 2068.179688 3821.371094 1845.851562 C 3801.03125 1734.691406 3768.289062 1633.761719 3711.820312 1558.03125 C 3655.351562 1482.289062 3572.199219 1433.449219 3464.480469 1433.449219 Z M 653.636719 2050.238281 C 637.179688 2050.378906 623.609375 2063.179688 622.511719 2079.609375 C 611.261719 2247.441406 615.203125 2412.429688 612.675781 2521.898438 C 612.671875 2522.199219 612.671875 2522.5 612.671875 2522.800781 C 612.886719 2563.609375 612.617188 2608.121094 612.460938 2655.019531 C 612.402344 2672.398438 626.445312 2686.53125 643.824219 2686.589844 C 652.171875 2686.621094 660.1875 2683.328125 666.109375 2677.449219 C 672.03125 2671.558594 675.371094 2663.570312 675.398438 2655.21875 C 675.554688 2608.539062 675.824219 2564.011719 675.609375 2522.761719 C 675.609375 2522.671875 675.609375 2522.558594 675.609375 2522.460938 C 678.167969 2410.109375 674.339844 2247.539062 685.308594 2083.808594 C 685.867188 2075.488281 683.097656 2067.28125 677.601562 2060.988281 C 672.109375 2054.710938 664.34375 2050.871094 656.015625 2050.308594 C 655.222656 2050.25 654.429688 2050.230469 653.636719 2050.238281 Z M 3814.398438 2893.109375 C 3797.628906 2893.050781 3783.769531 2906.148438 3782.871094 2922.890625 C 3774.429688 3079.800781 3753.300781 3241.199219 3703.949219 3359.191406 C 3679.28125 3418.179688 3647.839844 3465.921875 3609.058594 3498.308594 C 3570.28125 3530.691406 3524.480469 3548.878906 3464.480469 3548.878906 L 1001.378906 3548.878906 C 881.082031 3548.878906 811.054688 3484.371094 761.441406 3375.371094 C 711.828125 3266.371094 689.71875 3114.140625 681.011719 2958.199219 C 680.550781 2949.859375 676.792969 2942.050781 670.570312 2936.488281 C 664.347656 2930.921875 656.167969 2928.058594 647.835938 2928.53125 C 630.480469 2929.5 617.199219 2944.351562 618.171875 2961.699219 C 627.066406 3121.121094 648.464844 3279.089844 704.15625 3401.449219 C 759.847656 3523.804688 856.910156 3611.820312 1001.378906 3611.820312 L 3464.480469 3611.820312 C 3537.800781 3611.820312 3600.25 3587.65625 3649.398438 3546.613281 C 3698.550781 3505.566406 3734.699219 3448.800781 3762.019531 3383.46875 C 3816.660156 3252.820312 3837.109375 3086.339844 3845.71875 2926.269531 C 3846.171875 2917.941406 3843.289062 2909.769531 3837.710938 2903.558594 C 3832.140625 2897.351562 3824.320312 2893.601562 3815.988281 2893.148438 C 3815.460938 2893.128906 3814.929688 2893.109375 3814.398438 2893.109375 "/>
<path fill-rule="nonzero" fill="rgb(67.771912%, 90.234375%, 89.451599%)" fill-opacity="1" d="M 1370.210938 1778.570312 L 2441.691406 1778.570312 C 2839.960938 1778.570312 2839.960938 2232.351562 2839.960938 2560.238281 C 2839.960938 2888.128906 2839.960938 3341.910156 2441.691406 3341.910156 L 1370.210938 3341.910156 C 964.613281 3341.910156 967.777344 2885.640625 969.570312 2560.238281 C 969.570312 2328.539062 964.613281 1778.570312 1370.210938 1778.570312 "/>
<path fill-rule="nonzero" fill="rgb(33.325195%, 90.234375%, 88.28125%)" fill-opacity="1" d="M 2268.539062 1740.960938 C 2273.5 1748.300781 2731.089844 2429.601562 2301.328125 3269.359375 C 2295.199219 3281.339844 2289.5 3292.960938 2284.128906 3304.308594 L 2394.679688 3304.308594 C 2792.960938 3304.308594 2792.960938 2850.519531 2792.960938 2522.628906 C 2792.960938 2194.738281 2792.960938 1740.960938 2394.679688 1740.960938 L 2268.539062 1740.960938 "/>
<path fill-rule="nonzero" fill="rgb(0%, 0%, 0%)" fill-opacity="1" d="M 1323.199219 1711.769531 C 1228.789062 1711.769531 1152.199219 1740.460938 1093.398438 1788 C 1034.609375 1835.550781 993.699219 1900.800781 964.859375 1972.828125 C 958.867188 1987.800781 966.144531 2004.789062 981.109375 2010.78125 C 988.296875 2013.660156 996.335938 2013.570312 1003.449219 2010.519531 C 1010.570312 2007.46875 1016.191406 2001.71875 1019.070312 1994.53125 C 1045.328125 1928.921875 1081.390625 1872.808594 1130.121094 1833.410156 C 1178.851562 1794 1240.320312 1770.148438 1323.199219 1770.148438 L 2394.679688 1770.148438 C 2488.710938 1770.148438 2555.398438 1796.148438 2606.011719 1839.21875 C 2656.609375 1882.289062 2691.589844 1944 2715.378906 2017.800781 C 2762.960938 2165.378906 2763.761719 2358.691406 2763.761719 2522.628906 C 2763.761719 2591.21875 2763.75 2664.851562 2760.148438 2738.210938 C 2759.359375 2754.308594 2771.769531 2768 2787.878906 2768.800781 C 2803.980469 2769.589844 2817.671875 2757.171875 2818.460938 2741.070312 C 2822.160156 2665.808594 2822.140625 2591.21875 2822.140625 2522.628906 C 2822.140625 2358.691406 2822.949219 2161.160156 2770.960938 1999.878906 C 2744.960938 1919.238281 2705.261719 1847.019531 2643.859375 1794.761719 C 2582.449219 1742.5 2499.800781 1711.769531 2394.679688 1711.769531 Z M 934.980469 2201.089844 C 920.039062 2200.960938 907.410156 2212.128906 905.71875 2226.980469 C 892.800781 2340.25 893.375 2448.488281 893.375 2522.628906 C 892.476562 2685.28125 890.417969 2882.78125 942.316406 3044.421875 C 968.273438 3125.261719 1008.261719 3197.789062 1070.410156 3250.238281 C 1132.558594 3302.691406 1216.328125 3333.5 1323.199219 3333.5 L 2394.679688 3333.5 C 2499.921875 3333.5 2582.640625 3302.691406 2644.070312 3250.320312 C 2705.5 3197.949219 2745.179688 3125.589844 2771.140625 3044.808594 C 2773.511719 3037.441406 2772.859375 3029.429688 2769.320312 3022.539062 C 2765.78125 3015.648438 2759.648438 3010.449219 2752.28125 3008.078125 C 2744.910156 3005.710938 2736.898438 3006.371094 2730.011719 3009.898438 C 2723.121094 3013.441406 2717.921875 3019.570312 2715.550781 3026.941406 C 2691.789062 3100.878906 2656.820312 3162.730469 2606.191406 3205.890625 C 2555.558594 3249.050781 2488.820312 3275.109375 2394.679688 3275.109375 L 1323.199219 3275.109375 C 1227.269531 3275.109375 1159.351562 3248.890625 1108.070312 3205.609375 C 1056.800781 3162.339844 1021.628906 3100.460938 997.90625 3026.570312 C 950.453125 2878.769531 950.863281 2685.511719 951.761719 2522.789062 C 951.761719 2522.738281 951.761719 2522.679688 951.761719 2522.628906 C 951.761719 2448.21875 951.308594 2342.5 963.730469 2233.601562 C 965.558594 2217.578125 954.054688 2203.109375 938.035156 2201.28125 C 937.019531 2201.160156 936 2201.101562 934.980469 2201.089844 "/>
<path fill-rule="nonzero" fill="rgb(100%, 39.988708%, 39.988708%)" fill-opacity="1" d="M 3128.019531 2809.179688 L 3422.378906 2809.179688 C 3473.550781 2809.179688 3514.738281 2850.371094 3514.738281 2901.539062 L 3514.738281 3239.398438 C 3514.738281 3290.558594 3473.550781 3331.75 3422.378906 3331.75 L 3128.019531 3331.75 C 3076.851562 3331.75 3035.660156 3290.558594 3035.660156 3239.398438 L 3035.660156 2901.539062 C 3035.660156 2850.371094 3076.851562 2809.179688 3128.019531 2809.179688 "/>
<path fill-rule="nonzero" fill="rgb(0%, 0%, 0%)" fill-opacity="1" d="M 3128.019531 2796.398438 C 3069.988281 2796.398438 3022.878906 2843.511719 3022.878906 2901.539062 L 3022.878906 3239.398438 C 3022.878906 3297.421875 3069.988281 3344.53125 3128.019531 3344.53125 L 3422.390625 3344.53125 C 3480.410156 3344.53125 3527.519531 3297.421875 3527.519531 3239.398438 L 3527.519531 2901.539062 C 3527.519531 2843.511719 3480.410156 2796.398438 3422.390625 2796.398438 Z M 3128.019531 2821.960938 L 3422.390625 2821.960938 C 3466.691406 2821.960938 3501.960938 2857.230469 3501.960938 2901.539062 L 3501.960938 3239.398438 C 3501.960938 3283.699219 3466.691406 3318.96875 3422.390625 3318.96875 L 3128.019531 3318.96875 C 3083.710938 3318.96875 3048.441406 3283.699219 3048.441406 3239.398438 L 3048.441406 2901.539062 C 3048.441406 2857.230469 3083.710938 2821.960938 3128.019531 2821.960938 "/>
<path fill-rule="nonzero" fill="rgb(44.700623%, 44.700623%, 44.700623%)" fill-opacity="1" d="M 3502.179688 1908.949219 C 3502.179688 2036.441406 3398.839844 2139.78125 3271.371094 2139.78125 C 3143.890625 2139.78125 3040.558594 2036.441406 3040.558594 1908.949219 C 3040.558594 1781.46875 3143.890625 1678.121094 3271.371094 1678.121094 C 3398.839844 1678.121094 3502.179688 1781.46875 3502.179688 1908.949219 "/>
<path fill-rule="nonzero" fill="rgb(0%, 0%, 0%)" fill-opacity="1" d="M 3271.371094 1665.53125 C 3137.089844 1665.53125 3027.96875 1774.660156 3027.96875 1908.949219 C 3027.96875 2043.238281 3137.089844 2152.371094 3271.371094 2152.371094 C 3405.648438 2152.371094 3514.769531 2043.238281 3514.769531 1908.949219 C 3514.769531 1774.660156 3405.648438 1665.53125 3271.371094 1665.53125 Z M 3271.371094 1690.710938 C 3392.039062 1690.710938 3489.589844 1788.269531 3489.589844 1908.949219 C 3489.589844 2029.628906 3392.039062 2127.199219 3271.371094 2127.199219 C 3150.699219 2127.199219 3053.140625 2029.628906 3053.140625 1908.949219 C 3053.140625 1788.269531 3150.699219 1690.710938 3271.371094 1690.710938 "/>
<path fill-rule="nonzero" fill="rgb(81.639099%, 81.639099%, 81.639099%)" fill-opacity="1" d="M 3449.738281 1908.949219 C 3449.738281 1956.261719 3430.941406 2001.628906 3397.488281 2035.089844 C 3364.039062 2068.539062 3318.671875 2087.339844 3271.371094 2087.339844 C 3172.859375 2087.339844 3093 2007.46875 3093 1908.949219 C 3093 1810.429688 3172.859375 1730.570312 3271.371094 1730.570312 C 3318.671875 1730.570312 3364.039062 1749.359375 3397.488281 1782.808594 C 3430.941406 1816.269531 3449.738281 1861.640625 3449.738281 1908.949219 "/>
<path fill-rule="nonzero" fill="rgb(44.700623%, 44.700623%, 44.700623%)" fill-opacity="1" d="M 3499.828125 2433.609375 C 3499.828125 2559.800781 3397.539062 2662.089844 3271.371094 2662.089844 C 3145.191406 2662.089844 3042.910156 2559.800781 3042.910156 2433.609375 C 3042.910156 2307.421875 3145.191406 2205.128906 3271.371094 2205.128906 C 3397.539062 2205.128906 3499.828125 2307.421875 3499.828125 2433.609375 "/>
<path fill-rule="nonzero" fill="rgb(0%, 0%, 0%)" fill-opacity="1" d="M 3271.371094 2192.539062 C 3138.390625 2192.539062 3030.320312 2300.621094 3030.320312 2433.609375 C 3030.320312 2566.601562 3138.390625 2674.679688 3271.371094 2674.679688 C 3404.351562 2674.679688 3512.421875 2566.601562 3512.421875 2433.609375 C 3512.421875 2300.621094 3404.351562 2192.539062 3271.371094 2192.539062 Z M 3271.371094 2217.71875 C 3390.738281 2217.71875 3487.238281 2314.230469 3487.238281 2433.609375 C 3487.238281 2552.988281 3390.738281 2649.511719 3271.371094 2649.511719 C 3152 2649.511719 3055.488281 2552.988281 3055.488281 2433.609375 C 3055.488281 2314.230469 3152 2217.71875 3271.371094 2217.71875 "/>
<path fill-rule="nonzero" fill="rgb(81.639099%, 81.639099%, 81.639099%)" fill-opacity="1" d="M 3449.738281 2433.609375 C 3449.738281 2480.921875 3430.941406 2526.300781 3397.488281 2559.75 C 3364.039062 2593.199219 3318.671875 2612 3271.371094 2612 C 3172.859375 2612 3093 2532.128906 3093 2433.609375 C 3093 2386.300781 3111.789062 2340.929688 3145.238281 2307.46875 C 3178.691406 2274.019531 3224.058594 2255.230469 3271.371094 2255.230469 C 3318.671875 2255.230469 3364.039062 2274.019531 3397.488281 2307.46875 C 3430.941406 2340.929688 3449.738281 2386.300781 3449.738281 2433.609375 "/>
<path fill-rule="nonzero" fill="rgb(0%, 0%, 0%)" fill-opacity="1" d="M 3139.019531 2923.070312 L 3411.378906 2923.070312 C 3417.300781 2923.070312 3422.070312 2927.839844 3422.070312 2933.761719 L 3422.070312 2935.511719 C 3422.070312 2941.441406 3417.300781 2946.199219 3411.378906 2946.199219 L 3139.019531 2946.199219 C 3133.101562 2946.199219 3128.328125 2941.441406 3128.328125 2935.511719 L 3128.328125 2933.761719 C 3128.328125 2927.839844 3133.101562 2923.070312 3139.019531 2923.070312 "/>
<path fill-rule="nonzero" fill="rgb(0%, 0%, 0%)" fill-opacity="1" d="M 3139.019531 2962.390625 L 3411.378906 2962.390625 C 3417.300781 2962.390625 3422.070312 2967.160156 3422.070312 2973.078125 L 3422.070312 2974.839844 C 3422.070312 2980.761719 3417.300781 2985.519531 3411.378906 2985.519531 L 3139.019531 2985.519531 C 3133.101562 2985.519531 3128.328125 2980.761719 3128.328125 2974.839844 L 3128.328125 2973.078125 C 3128.328125 2967.160156 3133.101562 2962.390625 3139.019531 2962.390625 "/>
<path fill-rule="nonzero" fill="rgb(0%, 0%, 0%)" fill-opacity="1" d="M 3139.019531 3001.710938 L 3411.378906 3001.710938 C 3417.300781 3001.710938 3422.070312 3006.480469 3422.070312 3012.398438 L 3422.070312 3014.160156 C 3422.070312 3020.078125 3417.300781 3024.839844 3411.378906 3024.839844 L 3139.019531 3024.839844 C 3133.101562 3024.839844 3128.328125 3020.078125 3128.328125 3014.160156 L 3128.328125 3012.398438 C 3128.328125 3006.480469 3133.101562 3001.710938 3139.019531 3001.710938 "/>
<path fill-rule="nonzero" fill="rgb(0%, 0%, 0%)" fill-opacity="1" d="M 3139.019531 3041.039062 L 3411.378906 3041.039062 C 3417.300781 3041.039062 3422.070312 3045.800781 3422.070312 3051.71875 L 3422.070312 3053.480469 C 3422.070312 3059.398438 3417.300781 3064.171875 3411.378906 3064.171875 L 3139.019531 3064.171875 C 3133.101562 3064.171875 3128.328125 3059.398438 3128.328125 3053.480469 L 3128.328125 3051.71875 C 3128.328125 3045.800781 3133.101562 3041.039062 3139.019531 3041.039062 "/>
<path fill-rule="nonzero" fill="rgb(0%, 0%, 0%)" fill-opacity="1" d="M 3139.019531 3078.050781 L 3411.378906 3078.050781 C 3417.300781 3078.050781 3422.070312 3082.808594 3422.070312 3088.730469 L 3422.070312 3090.488281 C 3422.070312 3096.410156 3417.300781 3101.179688 3411.378906 3101.179688 L 3139.019531 3101.179688 C 3133.101562 3101.179688 3128.328125 3096.410156 3128.328125 3090.488281 L 3128.328125 3088.730469 C 3128.328125 3082.808594 3133.101562 3078.050781 3139.019531 3078.050781 "/>
<path fill-rule="nonzero" fill="rgb(0%, 0%, 0%)" fill-opacity="1" d="M 3139.019531 3117.371094 L 3411.378906 3117.371094 C 3417.300781 3117.371094 3422.070312 3122.128906 3422.070312 3128.050781 L 3422.070312 3129.808594 C 3422.070312 3135.730469 3417.300781 3140.5 3411.378906 3140.5 L 3139.019531 3140.5 C 3133.101562 3140.5 3128.328125 3135.730469 3128.328125 3129.808594 L 3128.328125 3128.050781 C 3128.328125 3122.128906 3133.101562 3117.371094 3139.019531 3117.371094 "/>
<path fill-rule="nonzero" fill="rgb(0%, 0%, 0%)" fill-opacity="1" d="M 3139.019531 3156.691406 L 3411.378906 3156.691406 C 3417.300781 3156.691406 3422.070312 3161.449219 3422.070312 3167.378906 L 3422.070312 3169.128906 C 3422.070312 3175.050781 3417.300781 3179.820312 3411.378906 3179.820312 L 3139.019531 3179.820312 C 3133.101562 3179.820312 3128.328125 3175.050781 3128.328125 3169.128906 L 3128.328125 3167.378906 C 3128.328125 3161.449219 3133.101562 3156.691406 3139.019531 3156.691406 "/>
<path fill-rule="nonzero" fill="rgb(0%, 0%, 0%)" fill-opacity="1" d="M 3139.019531 3196.011719 L 3411.378906 3196.011719 C 3417.300781 3196.011719 3422.070312 3200.78125 3422.070312 3206.699219 L 3422.070312 3208.449219 C 3422.070312 3214.378906 3417.300781 3219.140625 3411.378906 3219.140625 L 3139.019531 3219.140625 C 3133.101562 3219.140625 3128.328125 3214.378906 3128.328125 3208.449219 L 3128.328125 3206.699219 C 3128.328125 3200.78125 3133.101562 3196.011719 3139.019531 3196.011719 "/>
<path fill-rule="nonzero" fill="rgb(44.700623%, 44.700623%, 44.700623%)" fill-opacity="1" d="M 3399.960938 1772.050781 L 3406.488281 1778.578125 C 3409.738281 1781.828125 3409.738281 1787.078125 3406.488281 1790.328125 L 3328.5 1868.328125 C 3325.238281 1871.578125 3320 1871.578125 3316.738281 1868.328125 L 3310.21875 1861.800781 C 3306.960938 1858.539062 3306.960938 1853.300781 3310.21875 1850.050781 L 3388.210938 1772.050781 C 3391.460938 1768.789062 3396.699219 1768.789062 3399.960938 1772.050781 "/>
<path fill-rule="nonzero" fill="rgb(44.700623%, 44.700623%, 44.700623%)" fill-opacity="1" d="M 3406.371094 2566.359375 L 3399.839844 2572.890625 C 3396.589844 2576.148438 3391.339844 2576.148438 3388.089844 2572.890625 L 3310.101562 2494.898438 C 3306.839844 2491.640625 3306.839844 2486.398438 3310.101562 2483.140625 L 3316.628906 2476.609375 C 3319.878906 2473.359375 3325.121094 2473.359375 3328.378906 2476.609375 L 3406.371094 2554.609375 C 3409.621094 2557.871094 3409.621094 2563.109375 3406.371094 2566.359375 "/>
<path fill-rule="nonzero" fill="rgb(50.584412%, 50.584412%, 50.584412%)" fill-opacity="1" d="M 1806.039062 278.148438 L 1874.550781 259.789062 C 1888.269531 256.121094 1902.28125 264.199219 1905.960938 277.929688 L 1935.261719 387.308594 C 1938.941406 401.03125 1930.851562 415.039062 1917.128906 418.71875 L 1848.621094 437.078125 C 1834.898438 440.761719 1820.890625 432.671875 1817.210938 418.941406 L 1787.910156 309.558594 C 1784.230469 295.839844 1792.320312 281.828125 1806.039062 278.148438 "/>
<path fill-rule="nonzero" fill="rgb(0%, 0%, 0%)" fill-opacity="1" d="M 1878.890625 246.410156 C 1876.371094 246.558594 1873.820312 246.949219 1871.289062 247.628906 L 1802.789062 265.988281 C 1782.539062 271.421875 1770.320312 292.570312 1775.75 312.820312 L 1805.058594 422.199219 C 1810.480469 442.449219 1831.628906 454.660156 1851.878906 449.238281 L 1920.378906 430.878906 C 1940.628906 425.460938 1952.851562 404.300781 1947.421875 384.050781 L 1918.109375 274.671875 C 1913.371094 256.949219 1896.578125 245.390625 1878.890625 246.410156 Z M 1883.070312 271.570312 C 1888.128906 272.210938 1892.351562 275.789062 1893.800781 281.179688 L 1923.101562 390.570312 C 1925.03125 397.769531 1921.070312 404.628906 1913.871094 406.558594 L 1845.371094 424.921875 C 1838.171875 426.851562 1831.300781 422.878906 1829.371094 415.691406 L 1800.070312 306.300781 C 1798.140625 299.101562 1802.101562 292.238281 1809.300781 290.308594 L 1877.800781 271.949219 C 1879.601562 271.46875 1881.378906 271.351562 1883.070312 271.570312 "/>
<path fill-rule="nonzero" fill="rgb(50.584412%, 50.584412%, 50.584412%)" fill-opacity="1" d="M 2407.988281 593.558594 L 2476.488281 611.921875 C 2490.21875 615.601562 2498.308594 629.609375 2494.628906 643.328125 L 2465.320312 752.710938 C 2461.648438 766.441406 2447.640625 774.519531 2433.910156 770.851562 L 2365.410156 752.488281 C 2351.679688 748.808594 2343.601562 734.800781 2347.269531 721.078125 L 2376.578125 611.699219 C 2380.261719 597.96875 2394.269531 589.878906 2407.988281 593.558594 "/>
<path fill-rule="nonzero" fill="rgb(0%, 0%, 0%)" fill-opacity="1" d="M 2403.640625 580.179688 C 2385.949219 579.160156 2369.171875 590.71875 2364.421875 608.441406 L 2335.109375 717.820312 C 2329.691406 738.070312 2341.898438 759.230469 2362.148438 764.648438 L 2430.648438 783 C 2450.898438 788.429688 2472.058594 776.21875 2477.480469 755.96875 L 2506.789062 646.589844 C 2512.21875 626.339844 2500 605.191406 2479.75 599.761719 L 2411.25 581.398438 C 2408.71875 580.71875 2406.171875 580.320312 2403.640625 580.179688 Z M 2399.46875 605.339844 C 2401.148438 605.121094 2402.929688 605.238281 2404.730469 605.71875 L 2473.230469 624.078125 C 2480.429688 626.011719 2484.398438 632.871094 2482.46875 640.070312 L 2453.171875 749.449219 C 2451.238281 756.648438 2444.371094 760.621094 2437.171875 758.691406 L 2368.671875 740.328125 C 2361.46875 738.398438 2357.511719 731.53125 2359.429688 724.339844 L 2388.738281 614.960938 C 2390.179688 609.558594 2394.410156 605.96875 2399.46875 605.339844 "/>
<path fill-rule="nonzero" fill="rgb(100%, 100%, 100%)" fill-opacity="1" d="M 1384.230469 1912.269531 C 1380.921875 1912.308594 1377.640625 1912.910156 1374.53125 1914.039062 C 1236.808594 1964.328125 1168.089844 2082.050781 1135.839844 2201.820312 C 1103.601562 2321.578125 1104.898438 2446.46875 1104.898438 2523.191406 C 1104.128906 2631.210938 1102.578125 2760.160156 1135.199219 2875.460938 C 1167.839844 2990.828125 1238.941406 3094.289062 1375.921875 3136.660156 C 1391.328125 3141.429688 1407.679688 3132.800781 1412.441406 3117.398438 C 1417.210938 3102 1408.578125 3085.648438 1393.179688 3080.878906 C 1275.628906 3044.519531 1220.71875 2963.261719 1191.378906 2859.570312 C 1162.039062 2755.871094 1162.519531 2631.5 1163.289062 2523.398438 C 1163.289062 2523.328125 1163.289062 2523.261719 1163.289062 2523.191406 C 1163.289062 2446.011719 1162.761719 2326.421875 1192.21875 2217 C 1221.679688 2107.570312 1278.191406 2011.378906 1394.558594 1968.890625 C 1409.699219 1963.359375 1417.5 1946.601562 1411.96875 1931.460938 C 1407.730469 1919.828125 1396.609375 1912.140625 1384.230469 1912.269531 "/>
</svg>
